# xmcd
#
# Track frame offsets:
#	150
#	17509
#	42268
#	62696
#	79930
#	96674
#	114343
#	143173
#	162224
#	176449
#
# Disc length: 2606 seconds
#
# Revision: 1
# Processed by: cddbd v1.5.2PL0 Copyright (c) Steve Scherf et al.
# Submitted via: audiograbber 1.83.01
#
DISCID=7c0a2c0a
DTITLE=Pat Green - Songs We Wish We´d Written II
DYEAR=2012
DGENRE=Country
TTITLE0=All Just To Get To You
TTITLE1=Streets of Galilee
TTITLE2=Jesus on a greyhound
TTITLE3=Even the losers
TTITLE4=Austin
TTITLE5=If it weren´t for you
TTITLE6=Soulshine
TTITLE7=The world I Know
TTITLE8=If I had a boat
TTITLE9=I am too
EXTD=
EXTT0=
EXTT1=
EXTT2=
EXTT3=
EXTT4=
EXTT5=
EXTT6=
EXTT7=
EXTT8=
EXTT9=
PLAYORDER=
